<mxfile host="app.diagrams.net" modified="2023-11-01T01:21:22.403Z" agent="Mozilla/5.0 (Windows NT 10.0; Win64; x64) AppleWebKit/537.36 (KHTML, like Gecko) Chrome/116.0.0.0 Safari/537.36 OPR/102.0.0.0" etag="Wg4ARL3FBkn3b_4G1-JH" version="22.0.8" type="device">
  <diagram name="Página-1" id="89TUmUm-iqWpMG0mte3M">
    <mxGraphModel dx="1393" dy="766" grid="1" gridSize="10" guides="1" tooltips="1" connect="1" arrows="1" fold="1" page="1" pageScale="1" pageWidth="827" pageHeight="1169" math="0" shadow="0">
      <root>
        <mxCell id="0" />
        <mxCell id="1" parent="0" />
        <mxCell id="dvNAg4OS8qV7vnSEBEXI-1" value="Tarjeta Débito" style="swimlane;fontStyle=0;childLayout=stackLayout;horizontal=1;startSize=30;horizontalStack=0;resizeParent=1;resizeParentMax=0;resizeLast=0;collapsible=1;marginBottom=0;whiteSpace=wrap;html=1;fillColor=#f8cecc;strokeColor=#b85450;" vertex="1" parent="1">
          <mxGeometry x="70" y="130" width="240" height="240" as="geometry" />
        </mxCell>
        <mxCell id="dvNAg4OS8qV7vnSEBEXI-2" value="nombre: String&lt;br&gt;" style="text;strokeColor=none;fillColor=none;align=left;verticalAlign=middle;spacingLeft=4;spacingRight=4;overflow=hidden;points=[[0,0.5],[1,0.5]];portConstraint=eastwest;rotatable=0;whiteSpace=wrap;html=1;" vertex="1" parent="dvNAg4OS8qV7vnSEBEXI-1">
          <mxGeometry y="30" width="240" height="30" as="geometry" />
        </mxCell>
        <mxCell id="dvNAg4OS8qV7vnSEBEXI-3" value="mes_vencimiento:int" style="text;strokeColor=none;fillColor=none;align=left;verticalAlign=middle;spacingLeft=4;spacingRight=4;overflow=hidden;points=[[0,0.5],[1,0.5]];portConstraint=eastwest;rotatable=0;whiteSpace=wrap;html=1;" vertex="1" parent="dvNAg4OS8qV7vnSEBEXI-1">
          <mxGeometry y="60" width="240" height="30" as="geometry" />
        </mxCell>
        <mxCell id="dvNAg4OS8qV7vnSEBEXI-4" value="ano_vencimiento: int" style="text;strokeColor=none;fillColor=none;align=left;verticalAlign=middle;spacingLeft=4;spacingRight=4;overflow=hidden;points=[[0,0.5],[1,0.5]];portConstraint=eastwest;rotatable=0;whiteSpace=wrap;html=1;" vertex="1" parent="dvNAg4OS8qV7vnSEBEXI-1">
          <mxGeometry y="90" width="240" height="30" as="geometry" />
        </mxCell>
        <mxCell id="dvNAg4OS8qV7vnSEBEXI-5" value="numero: int" style="text;strokeColor=none;fillColor=none;align=left;verticalAlign=middle;spacingLeft=4;spacingRight=4;overflow=hidden;points=[[0,0.5],[1,0.5]];portConstraint=eastwest;rotatable=0;whiteSpace=wrap;html=1;" vertex="1" parent="dvNAg4OS8qV7vnSEBEXI-1">
          <mxGeometry y="120" width="240" height="30" as="geometry" />
        </mxCell>
        <mxCell id="dvNAg4OS8qV7vnSEBEXI-6" value="saldo: int" style="text;strokeColor=none;fillColor=none;align=left;verticalAlign=middle;spacingLeft=4;spacingRight=4;overflow=hidden;points=[[0,0.5],[1,0.5]];portConstraint=eastwest;rotatable=0;whiteSpace=wrap;html=1;" vertex="1" parent="dvNAg4OS8qV7vnSEBEXI-1">
          <mxGeometry y="150" width="240" height="30" as="geometry" />
        </mxCell>
        <mxCell id="dvNAg4OS8qV7vnSEBEXI-7" value="codigo_seguridad:int" style="text;strokeColor=none;fillColor=none;align=left;verticalAlign=middle;spacingLeft=4;spacingRight=4;overflow=hidden;points=[[0,0.5],[1,0.5]];portConstraint=eastwest;rotatable=0;whiteSpace=wrap;html=1;" vertex="1" parent="dvNAg4OS8qV7vnSEBEXI-1">
          <mxGeometry y="180" width="240" height="30" as="geometry" />
        </mxCell>
        <mxCell id="dvNAg4OS8qV7vnSEBEXI-8" value="tiene_chip:boolean" style="text;strokeColor=none;fillColor=none;align=left;verticalAlign=middle;spacingLeft=4;spacingRight=4;overflow=hidden;points=[[0,0.5],[1,0.5]];portConstraint=eastwest;rotatable=0;whiteSpace=wrap;html=1;" vertex="1" parent="dvNAg4OS8qV7vnSEBEXI-1">
          <mxGeometry y="210" width="240" height="30" as="geometry" />
        </mxCell>
        <mxCell id="dvNAg4OS8qV7vnSEBEXI-19" value="" style="swimlane;startSize=0;fillColor=#f8cecc;strokeColor=#b85450;" vertex="1" parent="1">
          <mxGeometry x="70" y="370" width="240" height="130" as="geometry" />
        </mxCell>
        <mxCell id="dvNAg4OS8qV7vnSEBEXI-20" value="+pagar(monto float): void" style="text;html=1;align=center;verticalAlign=middle;resizable=0;points=[];autosize=1;strokeColor=none;fillColor=none;" vertex="1" parent="dvNAg4OS8qV7vnSEBEXI-19">
          <mxGeometry width="160" height="30" as="geometry" />
        </mxCell>
        <mxCell id="dvNAg4OS8qV7vnSEBEXI-21" value="ó" style="text;html=1;align=center;verticalAlign=middle;resizable=0;points=[];autosize=1;strokeColor=none;fillColor=none;" vertex="1" parent="dvNAg4OS8qV7vnSEBEXI-19">
          <mxGeometry y="20" width="30" height="30" as="geometry" />
        </mxCell>
        <mxCell id="dvNAg4OS8qV7vnSEBEXI-23" value="+pagar(monto float): saldo float" style="text;html=1;align=center;verticalAlign=middle;resizable=0;points=[];autosize=1;strokeColor=none;fillColor=none;" vertex="1" parent="dvNAg4OS8qV7vnSEBEXI-19">
          <mxGeometry y="40" width="190" height="30" as="geometry" />
        </mxCell>
        <mxCell id="dvNAg4OS8qV7vnSEBEXI-25" value="+cargarSaldoTotal(monto float): void" style="text;html=1;align=center;verticalAlign=middle;resizable=0;points=[];autosize=1;strokeColor=none;fillColor=none;" vertex="1" parent="dvNAg4OS8qV7vnSEBEXI-19">
          <mxGeometry y="60" width="220" height="30" as="geometry" />
        </mxCell>
        <mxCell id="dvNAg4OS8qV7vnSEBEXI-24" value="ó" style="text;html=1;align=center;verticalAlign=middle;resizable=0;points=[];autosize=1;strokeColor=none;fillColor=none;" vertex="1" parent="dvNAg4OS8qV7vnSEBEXI-19">
          <mxGeometry y="80" width="30" height="30" as="geometry" />
        </mxCell>
        <mxCell id="dvNAg4OS8qV7vnSEBEXI-22" value="+pagar(monto float): Saldo Total float" style="text;html=1;align=center;verticalAlign=middle;resizable=0;points=[];autosize=1;strokeColor=none;fillColor=none;" vertex="1" parent="dvNAg4OS8qV7vnSEBEXI-19">
          <mxGeometry y="100" width="220" height="30" as="geometry" />
        </mxCell>
        <mxCell id="dvNAg4OS8qV7vnSEBEXI-26" value="Tarjeta Débito" style="swimlane;fontStyle=0;childLayout=stackLayout;horizontal=1;startSize=30;horizontalStack=0;resizeParent=1;resizeParentMax=0;resizeLast=0;collapsible=1;marginBottom=0;whiteSpace=wrap;html=1;fillColor=#f8cecc;strokeColor=#b85450;" vertex="1" parent="1">
          <mxGeometry x="460" y="130" width="390" height="530" as="geometry" />
        </mxCell>
        <mxCell id="dvNAg4OS8qV7vnSEBEXI-27" value="nombre: String&lt;br&gt;" style="text;strokeColor=none;fillColor=none;align=left;verticalAlign=middle;spacingLeft=4;spacingRight=4;overflow=hidden;points=[[0,0.5],[1,0.5]];portConstraint=eastwest;rotatable=0;whiteSpace=wrap;html=1;" vertex="1" parent="dvNAg4OS8qV7vnSEBEXI-26">
          <mxGeometry y="30" width="390" height="30" as="geometry" />
        </mxCell>
        <mxCell id="dvNAg4OS8qV7vnSEBEXI-28" value="mes_vencimiento:int" style="text;strokeColor=none;fillColor=none;align=left;verticalAlign=middle;spacingLeft=4;spacingRight=4;overflow=hidden;points=[[0,0.5],[1,0.5]];portConstraint=eastwest;rotatable=0;whiteSpace=wrap;html=1;" vertex="1" parent="dvNAg4OS8qV7vnSEBEXI-26">
          <mxGeometry y="60" width="390" height="30" as="geometry" />
        </mxCell>
        <mxCell id="dvNAg4OS8qV7vnSEBEXI-29" value="ano_vencimiento: int" style="text;strokeColor=none;fillColor=none;align=left;verticalAlign=middle;spacingLeft=4;spacingRight=4;overflow=hidden;points=[[0,0.5],[1,0.5]];portConstraint=eastwest;rotatable=0;whiteSpace=wrap;html=1;" vertex="1" parent="dvNAg4OS8qV7vnSEBEXI-26">
          <mxGeometry y="90" width="390" height="30" as="geometry" />
        </mxCell>
        <mxCell id="dvNAg4OS8qV7vnSEBEXI-30" value="numero: int" style="text;strokeColor=none;fillColor=none;align=left;verticalAlign=middle;spacingLeft=4;spacingRight=4;overflow=hidden;points=[[0,0.5],[1,0.5]];portConstraint=eastwest;rotatable=0;whiteSpace=wrap;html=1;" vertex="1" parent="dvNAg4OS8qV7vnSEBEXI-26">
          <mxGeometry y="120" width="390" height="30" as="geometry" />
        </mxCell>
        <mxCell id="dvNAg4OS8qV7vnSEBEXI-31" value="saldo: int" style="text;strokeColor=none;fillColor=none;align=left;verticalAlign=middle;spacingLeft=4;spacingRight=4;overflow=hidden;points=[[0,0.5],[1,0.5]];portConstraint=eastwest;rotatable=0;whiteSpace=wrap;html=1;" vertex="1" parent="dvNAg4OS8qV7vnSEBEXI-26">
          <mxGeometry y="150" width="390" height="30" as="geometry" />
        </mxCell>
        <mxCell id="dvNAg4OS8qV7vnSEBEXI-32" value="codigo_seguridad:int" style="text;strokeColor=none;fillColor=none;align=left;verticalAlign=middle;spacingLeft=4;spacingRight=4;overflow=hidden;points=[[0,0.5],[1,0.5]];portConstraint=eastwest;rotatable=0;whiteSpace=wrap;html=1;" vertex="1" parent="dvNAg4OS8qV7vnSEBEXI-26">
          <mxGeometry y="180" width="390" height="30" as="geometry" />
        </mxCell>
        <mxCell id="dvNAg4OS8qV7vnSEBEXI-33" value="tiene_chip:boolean" style="text;strokeColor=none;fillColor=none;align=left;verticalAlign=middle;spacingLeft=4;spacingRight=4;overflow=hidden;points=[[0,0.5],[1,0.5]];portConstraint=eastwest;rotatable=0;whiteSpace=wrap;html=1;" vertex="1" parent="dvNAg4OS8qV7vnSEBEXI-26">
          <mxGeometry y="210" width="390" height="30" as="geometry" />
        </mxCell>
        <mxCell id="dvNAg4OS8qV7vnSEBEXI-42" value="cantidad_maxima_cuotas: int" style="text;strokeColor=none;fillColor=none;align=left;verticalAlign=middle;spacingLeft=4;spacingRight=4;overflow=hidden;points=[[0,0.5],[1,0.5]];portConstraint=eastwest;rotatable=0;whiteSpace=wrap;html=1;" vertex="1" parent="dvNAg4OS8qV7vnSEBEXI-26">
          <mxGeometry y="240" width="390" height="30" as="geometry" />
        </mxCell>
        <mxCell id="dvNAg4OS8qV7vnSEBEXI-43" value="monto_limite_financiacion: float" style="text;strokeColor=none;fillColor=none;align=left;verticalAlign=middle;spacingLeft=4;spacingRight=4;overflow=hidden;points=[[0,0.5],[1,0.5]];portConstraint=eastwest;rotatable=0;whiteSpace=wrap;html=1;" vertex="1" parent="dvNAg4OS8qV7vnSEBEXI-26">
          <mxGeometry y="270" width="390" height="30" as="geometry" />
        </mxCell>
        <mxCell id="dvNAg4OS8qV7vnSEBEXI-44" value="intereses: int" style="text;strokeColor=none;fillColor=none;align=left;verticalAlign=middle;spacingLeft=4;spacingRight=4;overflow=hidden;points=[[0,0.5],[1,0.5]];portConstraint=eastwest;rotatable=0;whiteSpace=wrap;html=1;" vertex="1" parent="dvNAg4OS8qV7vnSEBEXI-26">
          <mxGeometry y="300" width="390" height="30" as="geometry" />
        </mxCell>
        <mxCell id="dvNAg4OS8qV7vnSEBEXI-34" value="" style="swimlane;startSize=0;fillColor=#f8cecc;strokeColor=#b85450;" vertex="1" parent="dvNAg4OS8qV7vnSEBEXI-26">
          <mxGeometry y="330" width="390" height="200" as="geometry" />
        </mxCell>
        <mxCell id="dvNAg4OS8qV7vnSEBEXI-35" value="+pagar(monto float): void" style="text;html=1;align=center;verticalAlign=middle;resizable=0;points=[];autosize=1;strokeColor=none;fillColor=none;" vertex="1" parent="dvNAg4OS8qV7vnSEBEXI-34">
          <mxGeometry width="160" height="30" as="geometry" />
        </mxCell>
        <mxCell id="dvNAg4OS8qV7vnSEBEXI-36" value="ó" style="text;html=1;align=center;verticalAlign=middle;resizable=0;points=[];autosize=1;strokeColor=none;fillColor=none;" vertex="1" parent="dvNAg4OS8qV7vnSEBEXI-34">
          <mxGeometry y="20" width="30" height="30" as="geometry" />
        </mxCell>
        <mxCell id="dvNAg4OS8qV7vnSEBEXI-37" value="+pagar(monto float): saldo float" style="text;html=1;align=center;verticalAlign=middle;resizable=0;points=[];autosize=1;strokeColor=none;fillColor=none;" vertex="1" parent="dvNAg4OS8qV7vnSEBEXI-34">
          <mxGeometry y="40" width="190" height="30" as="geometry" />
        </mxCell>
        <mxCell id="dvNAg4OS8qV7vnSEBEXI-38" value="+pagarEnCuotas(monto float, cantidadDeCuotas int):int" style="text;html=1;align=center;verticalAlign=middle;resizable=0;points=[];autosize=1;strokeColor=none;fillColor=none;" vertex="1" parent="dvNAg4OS8qV7vnSEBEXI-34">
          <mxGeometry y="60" width="320" height="30" as="geometry" />
        </mxCell>
        <mxCell id="dvNAg4OS8qV7vnSEBEXI-39" value="ó" style="text;html=1;align=center;verticalAlign=middle;resizable=0;points=[];autosize=1;strokeColor=none;fillColor=none;" vertex="1" parent="dvNAg4OS8qV7vnSEBEXI-34">
          <mxGeometry y="80" width="30" height="30" as="geometry" />
        </mxCell>
        <mxCell id="dvNAg4OS8qV7vnSEBEXI-40" value="+pagarEnCuotas(monto float, cantidadDeCuotas int):saldo Total Float" style="text;html=1;align=center;verticalAlign=middle;resizable=0;points=[];autosize=1;strokeColor=none;fillColor=none;" vertex="1" parent="dvNAg4OS8qV7vnSEBEXI-34">
          <mxGeometry y="95" width="390" height="30" as="geometry" />
        </mxCell>
        <mxCell id="dvNAg4OS8qV7vnSEBEXI-45" value="+cargarSaldoTotal(monto float):void" style="text;html=1;align=center;verticalAlign=middle;resizable=0;points=[];autosize=1;strokeColor=none;fillColor=none;" vertex="1" parent="dvNAg4OS8qV7vnSEBEXI-34">
          <mxGeometry y="120" width="210" height="30" as="geometry" />
        </mxCell>
        <mxCell id="dvNAg4OS8qV7vnSEBEXI-47" value="ó" style="text;html=1;align=center;verticalAlign=middle;resizable=0;points=[];autosize=1;strokeColor=none;fillColor=none;" vertex="1" parent="dvNAg4OS8qV7vnSEBEXI-34">
          <mxGeometry y="150" width="30" height="30" as="geometry" />
        </mxCell>
        <mxCell id="dvNAg4OS8qV7vnSEBEXI-46" value="+pagar(monto float): Saldo Total float" style="text;html=1;align=center;verticalAlign=middle;resizable=0;points=[];autosize=1;strokeColor=none;fillColor=none;" vertex="1" parent="dvNAg4OS8qV7vnSEBEXI-34">
          <mxGeometry y="170" width="220" height="30" as="geometry" />
        </mxCell>
      </root>
    </mxGraphModel>
  </diagram>
</mxfile>
